# xmcd
#
# Track frame offsets: 
#        150
#        26262
#        48172
#        72392
#        101707
#        128287
#        159460
#        178335
#        201225
#        230550
#
# Disc length: 3413 seconds
#
# Revision: 0
# Processed by: cddbd v1.5.2PL0 Copyright (c) Steve Scherf et al.
# Submitted via: ExactAudioCopy v1.0b3
#
DISCID=810d530a
DTITLE=Ha Vy - Nhan Canh Chim Chieu
DYEAR=1996
DGENRE=
TTITLE0=Duong lang nam ay
TTITLE1=Oi con song Dinh
TTITLE2=Ly chieu chieu
TTITLE3=Nhan canh chim chieu
TTITLE4=Thuong nho que nha
TTITLE5=La dieu bong 2
TTITLE6=Chieu he tren bai bien
TTITLE7=Tren nhip cau tre
TTITLE8=Mua tren pho Hue
TTITLE9=May nhip cau tre
EXTD=
EXTT0=
EXTT1=
EXTT2=
EXTT3=
EXTT4=
EXTT5=
EXTT6=
EXTT7=
EXTT8=
EXTT9=
PLAYORDER=
